<svg xmlns="http://www.w3.org/2000/svg" viewBox="0 0 1024 1024"><path fill="#00e5ff" d="M528.6605,6.8688c-133.1865-.843-209.8468,33.2967-283.4094,78.9829S75.6701,249.238,47.0194,338.2874,6.7536,493.1559,12.9484,569.0415s38.7171,163.3863,76.6599,219.9133,102.2132,132.4126,160.2889,168.8067,118.4744,59.6244,185.8422,44.9119c67.3678-14.7125,57.3013-118.4744,24.0046-154.0942s-147.1251-132.4126-168.0323-239.2718,22.4559-309.737,178.0988-361.618,324.4495-54.204,405.7555,54.9783,109.9566,264.0508,63.4961,374.7818-171.904,170.3554-243.1436,192.037-69.6908,10.8408-92.9211,28.6507-35.6198,69.6908-49.5579,84.4033-82.0803,31.748-82.0803,31.748c0,0,112.2797,3.0974,192.8113-17.0355s227.6567-116.1514,260.9534-177.3244,99.1158-175.0014,83.629-326.7726c-15.4869-151.7711-27.102-224.5593-131.6382-332.193S651.0066,7.6431,528.6605,6.8688Z"/></svg>
